<mxfile host="65bd71144e">
    <diagram id="ps_ky9QaTvREkVv99QDT" name="Page-1">
        <mxGraphModel dx="900" dy="714" grid="1" gridSize="10" guides="1" tooltips="1" connect="1" arrows="1" fold="1" page="1" pageScale="1" pageWidth="850" pageHeight="300" math="0" shadow="0">
            <root>
                <mxCell id="0"/>
                <mxCell id="1" parent="0"/>
                <mxCell id="2" value="What's inside execution context?" style="swimlane;whiteSpace=wrap;html=1;" vertex="1" parent="1">
                    <mxGeometry x="20" y="20" width="220" height="270" as="geometry"/>
                </mxCell>
                <mxCell id="4" value="&lt;ul&gt;&lt;li&gt;&lt;span style=&quot;background-color: initial;&quot;&gt;&lt;b&gt;Variable Environment&lt;/b&gt;&lt;/span&gt;&lt;/li&gt;&lt;ul&gt;&lt;li&gt;let, const and var&lt;/li&gt;&lt;li&gt;Functions&lt;/li&gt;&lt;li&gt;arguments object&lt;/li&gt;&lt;/ul&gt;&lt;li&gt;&lt;span style=&quot;background-color: initial;&quot;&gt;&lt;b&gt;Scope chain&lt;/b&gt;&lt;/span&gt;&lt;/li&gt;&lt;li&gt;&lt;span style=&quot;background-color: initial;&quot;&gt;&lt;b&gt;this keyword&lt;/b&gt;&lt;/span&gt;&lt;br&gt;&lt;/li&gt;&lt;/ul&gt;" style="text;strokeColor=none;fillColor=none;html=1;whiteSpace=wrap;verticalAlign=middle;overflow=hidden;" vertex="1" parent="2">
                    <mxGeometry x="5" y="30" width="205" height="210" as="geometry"/>
                </mxCell>
                <mxCell id="8" value="Global execution context" style="swimlane;whiteSpace=wrap;html=1;" vertex="1" parent="1">
                    <mxGeometry x="500" y="190" width="200" height="100" as="geometry"/>
                </mxCell>
                <mxCell id="15" value="name = 'Albin'&lt;br&gt;first = &amp;lt;function&amp;gt;&lt;br&gt;second = &amp;lt;function&amp;gt;&lt;br&gt;x = &amp;lt;unknown&amp;gt;" style="text;html=1;align=center;verticalAlign=middle;resizable=0;points=[];autosize=1;strokeColor=none;fillColor=none;" vertex="1" parent="8">
                    <mxGeometry x="30" y="30" width="130" height="70" as="geometry"/>
                </mxCell>
                <mxCell id="9" value="first() execution context" style="swimlane;whiteSpace=wrap;html=1;" vertex="1" parent="1">
                    <mxGeometry x="500" y="100" width="200" height="80" as="geometry"/>
                </mxCell>
                <mxCell id="14" value="a = 1&lt;br&gt;b = &amp;lt;unknown&amp;gt;" style="text;html=1;align=center;verticalAlign=middle;resizable=0;points=[];autosize=1;strokeColor=none;fillColor=none;" vertex="1" parent="9">
                    <mxGeometry x="45" y="30" width="110" height="40" as="geometry"/>
                </mxCell>
                <mxCell id="10" value="second() execution context" style="swimlane;whiteSpace=wrap;html=1;" vertex="1" parent="1">
                    <mxGeometry x="500" y="20" width="200" height="70" as="geometry"/>
                </mxCell>
                <mxCell id="13" value="c = 2&lt;br&gt;arguments = [7,9]" style="text;html=1;align=center;verticalAlign=middle;resizable=0;points=[];autosize=1;strokeColor=none;fillColor=none;" vertex="1" parent="10">
                    <mxGeometry x="40" y="30" width="120" height="40" as="geometry"/>
                </mxCell>
                <mxCell id="12" value="" style="shape=image;verticalLabelPosition=bottom;labelBackgroundColor=default;verticalAlign=top;aspect=fixed;imageAspect=0;image=data:image/png,iVBORw0KGgoAAAANSUhEUgAAAQAAAAFfCAYAAAChqhJEAAAAAXNSR0IArs4c6QAAAARnQU1BAACxjwv8YQUAAAAJcEhZcwAADsMAAA7DAcdvqGQAAGHCSURBVHhe7Z0JXBNn+sd/COEIIQESIIAQLkURRUTFKl541dpqW3V7aNutvey29rLu39rdru1ubXetvayttVWrqz1WbdXWC5V6YBUvxAMFATkEghAg4U4A/+87M4GAoAmioHm/n88wzDNvJjOZeZ73eZ535hmbkF7DroLBYFgl3YQ5g3H3EiLFlK/64IV/SCERRAyeu9IABAS/g+mDX0WEoyBg3DpiP8Oj2xLw3LrP4CqIWiPgrd5Y8H0EmUIxIUYQGonxwkvcOuPUShuBiA+uv75V7nFHH5kd5KHuCBZEN4P8nZ14jhzzo397WJDcudyFBmAAgoJUCPGTwVAjiBi3ntIClAn/XosjQgPsgfIaaMn/Af3tBLmAthpZmWVIJ1NhlSDrSDblY9eZMiTvykeyIOoIygt/Fv67c7kLDUAPyKVkptOgkBcwbiWJJSgX/m2Tvs4IcAE0Z/KQThrLg6XEDJhwRodtf8vG/8h0vEiQdSRVepz4IBvb1ugFwc2huXLDI75jsDAJKIWX/8uY1CcYXs68pK6yGOdOfYftBed5gYBE8RIeiOiLADcRt1xXmo34Ix/hRGWTiQ+IWI7HeuRj+5Yj8Ip+ABFeYtC+QZv5G9Ym/YIKvhlBDJnn07ivb190dxXBzkYQ1xmgTf8ZX56NA9zfxOuxvZtfWCZUnP8OS88dFJbMYRpmPTsbg5CEdQkueGB8CIgXCVSqcWzPUqzKSOSbcczFvDcmIoj+S35NQ0UpUo+vw+qkLWg6Wr6N/GwS1MGRCHXUI3XPVhRHTcMwd3LM5zfigx3LSQ8pIJqBqZOnY6S/BCJ6vIYKpCasxopm2zSP0KUJGMHtXBuQ3/ubOR8KC5YyH5O23Q+f62zD8dlAvBHriBNfn0dqTB883qcS257NQnIrB0Jd/EmqGpz4MhW7EgShCY3rd5UhYJwSctqFNeiRdyoHmz6qNLlmHDHh61BEEcPTSLkaK18obN4xPBGABRNlyNqViry+wRjmQ0/yVXIN5uDHRWXQtPZjP7cOzz0YgPzNMdj2jSBrBfn8rXh4uDvKDn6BDR/+KEi7FhZ4AMEIi3ofswYT5XfQIS8nG+lqHdFNBSKGPY9Yk+yKxOcdPDdqAAKkBhTmZyOrxAA7NxXGj/gLAoQ2QG/4c8bBGRGDH0GEuAxZucXcCZQFj8Bgk+3JQ/6Bv4wg23MxQFNAvpd+N5nyiCEu1AhXyVUdLlN5MX/GKoqb2tEpueAEJ7cYaR9yEkOAomykFlTAIFZi0OQ5mOwgrKe46KHJIOvppCZH4OSG8NFz8M7oaeDNXxOyHgGoPkGMQJ09QseOgSyF/G8g8t6DMFRoQ43PzCeexliVBAYNv11NnQShZJvzBkULbcynPCsLORevM2UVCC1vDaGkx6cGLGs/kJWiQx0kCJkgrGwX3RA61AsOGi0JG7TQ6O3hOyAET71hav7roM7gw4r0TFPD0DrK4YGIdq0loYiWC0NkJIyc8aqTsLZ9uCqJZefmTVd9V6NFMHYdvB7BhEAxai7HY1XiemiNfoP0eUzxSscB4y9s8xAmDFLBsTYb23e+h2RycVPjMWzEAozwVKEnschZnAcVDA8ZnSsgq/wJnxyKI6eMWPhuK3Ffd7umXp7E9BGBCjLPR9yWv+NEW/5K6QpsOEp2s/dShCgMyD//HjZ1SAxgD3XCbCw+n84t+cVswILBSoT2JAtnOBHRMOIRbBH+p9gQ7+EZ4j30n4iRv2/EHkHMoT6Cr49mY1a/SCi1SVhxdBHG+u3BZJWwniDqOxHDXIlXkLwcf9+7EdxPaPM0Xnh+BvpHTEPosUSkci3NI3/JTPLr3SrO4syvDrikPisst4Qouw+Z5ev4fT5eicLp7lCFERfyl0oqaQf2qE09j68/Flx6sRRTvwpEaIQHQpEr/DZ1SP4PMfzc/zI8/r3zdUcAHKtL8PX/FfI9vnF7AcTjRfW1oWTSfhyyvYiKJGG5DTL+9THqpwWgfOPHgqTrYaYH4IPokGDiVOlw4rSJ8lN0K7DlYjynvBzefdGTdHuaC5sF5adkIL2ohS/l6AM57R4NGdibzCs/dfXtuD2qQk3jZ9XgowYfjBj9Dsb7jYfcTsytuRYxurvRdVoUNfrSN0s2zgrKT8nVEq+nNUTRCA2ci8mRCzC5f09UFRGLaCOHv5ewvjUaannlbkGop5z8LcWpY4LyU66uxqF0sk2pOx9qdBl+Q87yd5Gy+TdhuQUTpVCR85yXIfxuuTpkkTjfMVhm4g1aSg2yjprE81U6pFMLJ3JC9yG8yFK02cSTMF6iVXpUXC+BfPwbpJBjzjkuLLdF8c/IWv4xNMXCchfETAMwHP5KMivPQmoLPW6Jl8yD/K1CVuFpXiAgE7dwhmWk5yezusunkdJoUGLgRceSqoqQ03gC8pF4ZAXiMopRJ1MhKvoRPP/gUswbswBhji0NQRSfADRoob6NIwDyviux5OX38dpDEzFxdCw3jQxu/4iznyv9rBtGPrsHX73RNL0U0b5t0hwAHbZqc1o6X2jZ8Xj1cSEdRz0kPfzxp3+pyOSLAEdywh1dEGrJUB7jlmB2DoBzybXqG2bWlTJBKZu56v2gdCUGwFAguP9E/11kXPxx+Uo8L6DY+UBBP64rJv2+CfWJOJH0f1j6y+v4Mj4eJy5Xwc4tGFOGzOSMSBPEq6A6oslHDi+49TgswAtjVRBrU/Djqtl48eOx3PRp0o2izrbJLaOf1SP3ZDx2/N5ySiBOt2V0Xg7ADr38aFxuC5mfK0KC+MnXhV5MrQwHthtndKeelqEal4/wEoZ5mG0A6qhCu/shpDE2J9j4wNeLuOTCIkVbTZ1WMZTyplsuJD4PIsqNOG6kt08TZF4yqrpV0JSZuBRSBbetmvJ84uS1hg7akvWIS/wVKfRjJFYjm+1cXN0gJb+J9tIB7C8zhgoTMUjVfg/gbK6auP72UHrZ4+ypRdiaZDqtJlGuZdAcwK7XrjMtWSO07GD8pAggDmFdegYWPZ7cND2bhSyy+prhQEJxKXXtRZB488s3xgYBf/XlbvqqSCuxKDfCMNsAHMS5XKLY4t6YPukTPDb4HUyP+QTzHvwnnhz+MGJojk4gS53DKa9v1Dw8P/QdPDZqKeYM5ZOC8aeNcWJvKF1oSFCEQpMhVUepB3dBqEuaxn96Ri3HWw8ux+tj/onp9HsH/xPP3/8IwoinoL2UyF1ITRRBS/NKyuF4bhTf/skxy/F8rwH86ltBWSl0xDjKwh7BSzEk/h+8GPOenYtgQylZKUHPoYsxNXAi39Zc0lZjR7YeIt8YzJuzGf+YuhKvTSHTY+T/YVOERl0fxwky+JL55YstvCESs2dQV9JLitAWUVzepQrUEY8hdEoonqIhw79D8Mq/3Vt4eiKEPEDDiUC8sKYvHu/vxHmnmz4xSSqOkwshB508wF2ijjKMEWSTHuso76NtjHcMTv/rOEHS9TDTAOQj5RiJw7N0qBMRq+6vQojCCdqi84iLew9bTJMchZ9ibWI2tPUiyH1U3H0Amqx4rNpuHBGg9IMX7erLSazOCziURq9Aa/QKesMJ1aipE8HRzQch9Hv9fSDTFyPl6AqsOH9QaGckHnF/nEQeuQ4kCr69l50WhbrGFGXHU7sIX29NQm6dG8IHk/h/WB/IiuLx3/gsbkxfFhiJsQPC+LZmk4gdm97FuqPZ0NRLoFSpEBpMJqUEUqm/0Kbrww3/Ea8tYx+/3MRVXMigytrKcOCGfGxLrSZGwBG+NGTwdWw2VFVXU0/+GkMKF8hqqpB+JAPL5hYizzQ/pXRpDDlCgoQRAJETAgRZgO+tNwAuMt4LLMvZzc27IuxpQAbjluCNsC83YJiqBEl/m4zjNxgy7CzMzgEwGAxLGAk3mqCqyUd+F1V+CjMADMYtQQExTWiVaqDhBV0SZgAYjFuCPeob9CT+T0OtIOmKsBwAg2HFMA+AwbBimAFgMKwYZgAYDCuGGQAGw4phBoDBsGKYAWAwrBhmABgMK4YZAAbDimEGgMGwYpgBYDCsGGYAGAwrhhkABsOKYQaAwbBimAFgMKwYZgAYDCuGGQAGw4phBoDBsGKYAWAwrBhmABgMK4YZAAbDimEGgMGwYpgBYDCsGGYAGAwrhhkABsOKYQaAwbBimAFgMKwYZgAYDCuGvRuQcXsR+cPFLwbOTlUov7gZlXpBLh0PpZ8CdboLKLl8Eg13y1Up6gtZYF84icj/ujNQ557h5V0EZgA6GPuByzFqpBLF+z/AyeOJgpRBNBwug95CZD8FHGzocjUytryCzCJuJRD6d4wb7s//f1WH7N1fIi0ng1++U/F4FlETo+Fuzy/Wpm3AgQNx/EIX4a40AAHB72CQXIu0058huUYQ3iS2qgWIuHcwAuUS2FJBQylO/nc60vO41Y34PrUHw3zJP3k78L81S3jhLSUW3g/NgAopOPXLEnTQ4XY4zoOXYGg/KVBTjOyj25BdUABDRUZTT088AwdHf8jCx6NnmDecbAzIi5+LlMxqocEtRjwHr02LRu72N7GpWC0Ibw732C8RFSRCecoGJJ3JQUNtNgz623Q8ZnIX5gAGIChIhRA/GQwdpQ3e72PUjFiEEOU3aLKRk02mwjSUtlB+St6eeKRmp+DInvWC5FbjDjd/Ffz9lRA6mq6H01Po2Zcovz4HyZveQlpaAmrLTZSfYsghsgRcOfwOEn49g0qI4HvPX+AirL712EPkrMTYR97HRKlSkN0c9XX0bzWK0uPIsV3ocspPuQsNQA/IybUGnQaFvOCmkQ+LhJzM8/a/ja1fP4Mj68m0+m1o+NXNyVuE5PWvICevY3qRuwGH8H5QELe/JPl7XDFHB658g7RsAzEcwfALEmS3mqolWLxmBzKJLzX5CWIExIL8JtDm5cAAJ3io+gqSroeFIYAUXv4vY1KfYHg585K6ymKcO/Udthec5wUCEsVLeCCiLwLcaPaDtCvNRvyRj3CisopbpgRELMdjPfKxfcsReEU/gAgvMeyIXJv5G9Ym/YIKvhlBDJnn07ivb190dxXBjoshCXUGaNN/xpdnSVzl/iZej+0NR2FVSyrOf4el5w4KS5YwBWEvz0G4VI0j/5mJHM6qtyBwMe59LJL8Ok3ozi7Hzq0bhSXKXAxbMBE0OiB7g7PrP0DpkLcwNJgPKSrzErBv/UJUGrfvMRuh992LUA8JHE269noSWmwmoUV9K9/ZjMok7PxsHnTCojmELk3AiOspHDkv38z5UFgwF2/4Tn4PYZ7FSFn7FvKMSb8bETQfo2KDUZeyBgl/JAhCc5mGWc/OxqA2fxweA9kXUVtuE3HXt65+BjuaLlfLsZmOiFnj4Vl+Egn/+4r4Al0PW3eF/0Lh/xsQjLCot/FYuBck3XTIu6wm1rwbXN3c4OMfDvucXbgknFyJzzt4bnhvKOxrUajOR7HBGe7u7gj2CcTl9D9QxrXqjX69h8NfXAexbDCCnYuQdaUW9jIxpO7EBTPZnjzkX5gdHQxXUS2KCvOhLtWiRKslP6gLSnO+wfkK0ls4hsPPrh4lBnu4i0WoKCZuejHfjk4ZOZuQXU3aWUxfeNwzEJ72GmTv34pyQdoM+35wlNujmnyPtp4YK7Etaq8cR3pqitCAEgQHf3cYhPWl3YIQHuiAK3lXYHByhczNHy42Z5CTRTwHO3Lxzp6GXm72sKktRUH+FZTRbZOpSpOF7IvHTb6zBlclxEg0VKAgtwClQjtt8SXkXTiM1uxVWziExcKxrgzakjamnGRkHE4WWptLf3gO6A83QwYuJieSHtFMKoPhFuEPmf4KMtNNf0dzUEIu94dthRYacq20PtXBUFuFgqKiVtZpYSNVITJiJBpStiK9PZcNxaY73ML6QNZNi/wzh2Gu7budmO8BeC3A68ODgcvxWJW4Hlrjp6TPY4pXOrZdjOcvNpuHMHXy/ejZkI3tO99DMvfjBWPYiAUY4VmFE7vmII7TovsxdcpD6EkchIr0n/DVqTju8xFDVuK+7qbtBiB23EuIluUjbtPfceIGe+vVeylm9REh7eBsbLqJGMB1/Er08qD/OUDqq4SrnR6a7AISm/JUZKzH2SPxwpIJQ1fiT6NUrXgAAsJ6fVUKEr96BQW1RNbnc0yeEga98TPG3r0gHv9bvYj/XJtMQ9irsxEOy3v82wPpBZ+lveAZ/PHT542/340RPpcXh907Ngiy24dIsRALHouBsiQBi4hnlivIzaGb54PwCx0A3xBvOHczoOT4Gpwgxq8rYmYOwAfRIcHEvdbhxGkT5afoVmCLUfkp3n05pdZc2CwoPyUD6UUtfClHH8hpdEB6hr3JvPJTV9+O26Mq1DR+Vg0+avDBiNHvYLzfeMjt2grQxOjuRtdpUaTlJe3F2VsFfxWdqPJTiT3k3DI/dfd059q1l4bLSbzyU869gq2LxjYZjMpK3l30jsGYGYsRGDUD9s4dk5himIMSoX37Q0muT23+WXIFWoZTcCx6hnrDSV+AzCObcTal6w4Hm+kBPILpU8cjpOI0Vu367LrJNb4HBk7EkR7cpDvqGbUcUwMNTT078SjmUY/i0i9YfOI3vhHG4777HkEEzuOH7R8hS5DCNhpR/R7G0AAFJNwYHM0pZGDboU+RUmNqWIZj/L1/RpRDBjZtWYQ0QXpzCD2sczYOLXoGrST+m2OmB1BwZB4OxicJwmux77kQEeMGw19mzw87Eup12Tj2y9stEowd5wHcmhzAePScOR0qg4UegM3jiHhmdDs9gA7IARC0Zzdicdzy1pO9N4Le8BT4OPqQa9ylOBEHtnwLo73vSpg9CsAl3rTqG2bWlSSG52hmVvpB6UrMqaEAWUIQLXORcQm/y1dM3Gg7Hyjox3XFza1ufSJOJP0flv7yOr6Mj8eJy1WwcwvGlCEzIROa8BCvQkJmmnzk8IIuS0NN28pP0actxLFl92HTf+Zh88YtSM4oRT2JS4dMXwBXoU1HU56VhZyL15myCoSWlpCDaurOuCjgYkzemoOPN3duayvb48qVcEO1qRnXm4px5UrxNXKNkKmrStvSfuWnGHJQnnYGOuraivnkdlfEbANQRxXa3Q8hpifRxge+XsQlFxYpWi7RJoZSTnp3AYnPg4hyA2oun27slb1k9PRWQVNm0oNLFdy2asrz27ihRQdtyXrEJf6KFPoxsRRks3c3dUnEGCxF6k8/IZ12n2JnCAMwAuT3ricz5wDIb/LHyF8yE7teu860ZI3Q0hIuQFdErwkF3IOceJEZuASp4EDm2sL2jNzEY8/uZ/DplutNj+Jf/3vUZPlt/EhcTinZxaqMHVj029L2K78Rn15wp/1eYYYFuY/bi5khgA/CBr+DKf7kaGp0yLpSijp7NwR4SGFna0DKvtnYUiw0FZKFjlcN0BTko9zeAwG0W681TQr2xohRb2KYgsg2Ehn3QcAx4N94faACWYlz8EMubxi40MGPGoUiXC6nHxbBzYv09OTq0J77Dl+eN71AYnHfxBmIIBpSUZwPdZUBTi4+cMxbgRUXTgptLOXGIUBTwpAg8Ya/3B56nRrqUur0VSJ79ysokC/EkAHkQIT1lRrS21S0kUwMfB9jHu4DvVojZM0dIPVWwpW6q5oEbP16YTMDKZ28GfeGE9enrgIFefxnbCWVyFxJvrcxOdOJ+MxFzH294KQjYcAGEgbc6IpzIu7/n4j7jwwkrf0QxWZcoTdN4OdY8lAYRNk78O6mJTev/ASnwUsQ088JefF/QUqmIOximOkB5CPl2ArEZelQJ5IiwF+FEIUTtEXnERf3XpPyUwo/xdrEbGjrRZD7qLj7ADRZ8Vi13aj8lH7wol19ubaZq680egVao1fQG06oRk2dCI5uPgih3+vvA5m+GClHiVI3U35KPOL+OIk8Ym4lCr69l50WhZwfdutoShiSiSg3xV6qFGT+cKNdtptfs/XOcr59q8lEuRzOthJ4G7epUsIFFdBkxGPbd82Vn6Lb/jn2n1VD19D0GV+ZN5z5mw46n/zvcSGHnHxpXwya9BSc7dv2BLpJpyPsQaL8NAF3dtvtUX7Kpc/x3982dpjyU5xd+SSEbbcbJCM6kbvyWQBGF8QmBn6THyeeEtFsQgMx4mm/voXcUm4RCJ6PETHBcOBXozpzGxLjN5t/30BXRLiZiR6SocaAqrTvcfSopTc13VosuBGIwbgZcqBLPYi8IuIOOYlBnQDdxb3QGd0Z9xiolA0oyc1AesIynD97HA3CqjuW0hMo0Hihm4szxA42qCtOQ15+49hWl4B5AAyGFWP2KACDwbj7YAaAwbBimAFgMKwYswyAyN4B3boZb0hlMBh3C8wDYDCsGGYAGAwrhhkABsOKMes+AJoDqK+rQ0MDfeqko1AgIvrfuM+PX2qtZBiDwbi1dKIHUAxtWT6ycrKRVWKAnZsK4we1fLy3fdCy4NMHv4qItgoE3kXcI3fCsgcCcOKN3rj41944MYY+Q8dgmEenhgBZqX/HD0ffww/xPyOFPjjnooDxobr2cwvKgndVlAp88UwAxvd2gtSW3dDJsJyukQOw8YCYdlw1WhifDWk/HV8WvMtSXYOTR3LwybIL6BHXVEOZwTCXTswBmCCUB6u7+BM+SW7j1Uk2vdEz5HGMCvWBnLr2ZK+blQ+/FWXBvRbjwxmRfFhyVY+q0gIkJazHT+nxlj+lFvsZHp0bdZ0XXVQgZcm9ONRKnVGziOiOixNcoDuRiai9bRefks/fioeHu6Ps4BfY8OGPgpRhrXQJD8DL3Rt2RKVy1G0p/3DExr6JqRE+kNUXc3mDwkpAFnw/HvAxliDT4TKRpxfzSURaFjydLgtTcsEJTm4RdpVQC6Wicov1ELmpMGzym3itb7TQwAKI8chvrcyWyVR88+7PDXFV8vUHXJUB3Jxh3XQBD8BYHaitst9iBET8G4/1ECHv+AqszRIq+/i8g7eGqqA9uwxfmlT76aiy4K0iXoAFz8TCrzIJn66ah1RB3CUw0wOA4mEETAtA+caPoTEt5MKwSjrfA7AZAF8FmRfnIr01U2TzAO4JIb28+gh+FpTfTjID0/upyH9VSM8zLfXVcWXBjYgcYtC/5wJMjiRTaC00JUTo6o7b9caqDqf4Z2QtZ8rP4Ol8D0CI/yvPrcCX51upny7E9nbafFw2uELpIoYjTRjWVyHl8KfYojZ9hXRHlgVXInz4Urw0qLVKm9nY+vEz2CEsmUUXyQEwGKZ0ugdgjP8LS9p4eYIjUXgys3P0gNK2DJcvn8aBg9/hk81zWig/pQPLgvstwNNE+Q15CVi2bCZe/HgsN23NFtZbShfJATAYpnS6AXBx5CqmobytNyfWVHFFMCtyfsYne/+ODUmf4VDhQdR0i4aXkP+7Jbg6k4ACyE1ZiLO1QulSmzkI9eH/tZikD3GgtVLbjdNspF7/VQEMRodjVk1AW1s7XG1owNWrN4wWLKZeMhyDlDL4+I6Gn2sMBkfMxCBk4USJkMGrrofYNwpBPuGk3SD4eQzHwF6PYXz/wYiwt8Uf+Rf4dhxe8Ff1g9Jdhb6eg6Dy5NtGO+TjRLGFL7VwGIvYPh7w9BwPL7te8AucgScmDYSorBoSiStkkjCIqkuRWWHpi6M6EH837Bwjx8zeUswMcIK7sy0cxCJMUrkQmR2k52twTGhqRP7OTsz862wEd89FyqEuWquacdvodA9Am/EbDqmrUOdAy40TF/4qifWbvd8qEfH7fsIJ0sZOKA3uKzZAk3sacRf2Cm2MdGBZ8NxFWLY3G1onJQbFxGLiACWqLmzFF6dp0Wh7KPtGY2yvppefdApuzggOkfITraNNcZUIMmd05yXNcJHRGAkoy9nNzRnWTde4EYhxm/BG2JcbMExVgqS/TcZxFnJYPV3iRiDG7WIk3OigRk0+8pnyMwjMAFgVCojpkEqppsPefsO4s2EGwKqwR32DnsT/aV3yVdWM2w/LATAYVgzzABgMK4YZAAbDimEGgMGwYpgBYDCsGGYAGIxmiNHNfyIUE56CckCEIOtcuvWaBiXZH/fwgA5XWDYKwGAYUU5D6PNT4Gd8ZjtnB/Ys/V5Y6DycH/sa9wwQnnyryUPKN+8hP6djyuczA2AObs9jeg8lKnM3YHvBeUFoOROn7sFkVQWOrX8Qq+76iqVdkWkIe3U2wpGEnZ/NQ7NHTlwfR/i8iVDaA5Xp+5Gy9w/UaPJQW8pXlnlmTBDmR12n5Hp1Cb5cWohPhEXzsMHMKCVeHyGDVGRDlq+iVlOBw/vz8Vx6A9+E4tIDDl4hkI+chB69ZBChCKmfv4HcXGH9TcBCADOQe/XmHixyRvuVn9GVEUM2ZSSn/OUnv8Xhr7+FNj2lUfmbaIAuR4eMdJOpmO8Ua8n/lik/NSoB+McYV0ht9LhMt5Wvh4PcBaMeDsBa08fOyy+S7e9A/sqX8ceuPBjggdBpT3WI8jIDYAZeUq7OODTl/DLjLkN0H3xDiYtdk4ILG/cLwtYw4Ny+PNz7c9N0soK+NbseKefbKmjRBjYumD7AkbgbpVi5NBOj6fbWZeK53fQic8A9A535di0w7PkBWbRwjE8EfNtbm8KETg8BaH2/SQOHoKdcDDvqBdVVoTAjHpvO/gKt6Z45z8CUQU3t6irzkXzsO8QVN1UFcgz4N14fKMaJuNXQ9HwCsX5S2JHzU6FOxM+HViDPdHuO92NE/zGIUkrhaCfIyPqa8tP4Ne4zpGM87rvvEUS0VXSk4jTW7vwMecKiOTSGAHsvImhkJOT0e+sqkHtmJ77+fbmF9+c/imE/vIwwapvaoDzxC/z4noWlvx2mwP/BmQjzc4OU9IiNVLZ0m5VwHLwAw4aGgZwSjsrCJBzfugSFRS1qJPguwID7B8PfTQJ72uWQY9ZkH8WRzYtQaXJPsq2KtouBv8weVK302myc3Pw2cvKatuf71B4M883GkQ1qqCZHw5t65WR7lw6txrFDW/hGHML+DSf7J7RJj9+JmmHTrg0B+r+F4TPCgLPf4+Ca1gu98SEAcHhtJp407g5R4p1vdkdwTTvcf6UCJ570gMOZLITvMDUeZJt/JdssK8K7K4qxTpCa4jDlYwyP8UDRrheQvKeVXIBqPiZ8fD/8kYX4N2Yi4zpVrDrVA5AoF+DFCbEII1dQZSEt350PLXHHvELvx4zQAUIrgvRV/OVek3a0NoCzD6JG/hnRRuUl+Mv5F4sp+z6N8Z7ErcrLh4ZcYBJlNIYquVU84ufx/KSHyIUkRV1ZflP58EJySWjURPkpddBypcWL+fcOVBY3taNT+nmLlN+UnoMj4VTKlxvXGCTwi5yGecOnCWvNRYPitNZLixmn/MuWPvIzESGz5mBIsBsJdypQkJ2NHOOUX0r6uSZsB7+Pe8cS5XIU2hVWwNErEiNnLOANm5EeizH+qViEyCVoIMdMt6Wpl0AeHItJf17Y9B4H7/cxakYsAony03NMt2crU2HIUx8h8JqyjN7oOykabhWkXUEparpJEDjyBUT0FlZTAudiFN0/ovw6ur0iA7qPGtNqjQQoZKTPJe3y2u79r1wpJy5/OS6b6Gr3fjIEk86oPe5/mzjYcvsCsl1u3gq12UXcsxxijzZGKfy94UZ/WEcFFP68qC1MT9XtxeZ+TBgUDIk+G3G7P8KJGsGS2QwnPXM/cgEbq/32w4hB/SAj9vrE7rcRp6PtxAjp/zGmh/ggyBNIzKftekPpQotiiOBrcxBf7viO8yD4MuGCdyEg9+8NOVnOSpyDH3LbyqbG49DReGKQifHxV6DuykFsOPGbsO5mkKDuwlL8/eAW4lASbObgtZenILT/WIw8uBHXc0Cbsxup/yCTsNQxhMGLKhvp7Xe3TJI1YxpC71HBvk6NI9/MRI5Qy9A+dh0eHBKGXoOVOPQH7SYj4T8iEq7QI2/fu0RmrPsYDd+Hnobt0eVcuTeK16hoyMm84MjbOBjPt3McvwGTByoRNmoGLv2ynpPx2MNwcSm2bRN6/IHL8eD4EHj3mIbk8xs5kdeQSFDnKG//2zh0SPjePp9j0hRygJX8ohFnD8HCNLSdWf/1TBGZhAUOG7zRhw4XtMP9pxTWoohcn8G9FFh24jJeukIWRLb4eJJn60bKlEoD6Z6uw8EPsc31KfjgBFIPCrI26DQPwNEvGj2JidNc2Nyk/JSrB3EgaRmyjN2Ny2iEk/NTl31AUH5KFdKvcFpvQjA8OAdAh0MneeWn2HFHaIDepPuqrOJfoxUQ8T6m956BEOJNtImrgnszkFbbsgBpe6lAZpqg/JSrS5FKD0WkhB8tj96pVKJaT2bOkRj6zOcIHfI0nGUh/CpT7HrSYkTQ5yY0Kj9FfyCF84pcFDG8ALHw8SKzynM406j8lETk/TLbxLWfAjnVfqiRfaCpXc2Rc6CF3JyVYS3e+FSByykm7r6mvNGQ8EyDnHQMtHpzplH5KeeScLmjHoN0cEGkL5lXa3E4ixdZxNVybDhJ9lokwfg/9+Je7Hrx9Z4Yoi3FZbpeq8curmF7KED5rx8i9dcbV33qNAMQpKRKV4Us9Wle0BYuMk4BLxc2/zlk4hZJEkcfyKkDUHweyY32xKfxPQGm3nBNzmKsOpqBwgYpQvrEYvrEf+KtBz7BFG9TH5LHV+pK/hrINdbVRgBoDiABz21re3r0nUeFtuayHCd/2IJU4n47e4UhInYGJr20HFPnrkNYhMnbkPzcuPLm9oHT8KcFe5qmv8aC6oQpNJaHrvQ63gSFnDiuYS3qTbs2XTm4wTB7e9Lnt4PKkhadfTkMrXSd1boWLoEZ3NNXhu7U/U/Tttv9X7n3Et74sQBJ3IhCCeJ+TMOz+XacB6ArquUNQWsYf64OoNMMgIj75iIU3iCz7iUT3hdcb+qeieHrSs1CMfLoizooMr6nrig6T9TdSDj/otAq8j3NTrwOhTmLsGr7M1i8/SfEncuH1k6KsGF/xojmXQ0ULtcakI7lafjT3sqgRq5FL+u4FTkAQt5SJK98EJsWzcbm9etx5KwaNQ5KhE+aA39jwjG3lKgSQZuOI4fir5mSzzV5S5zj5a7k3Pu2If4Q19ABtqZBqdSFv0D1ehJEtANndzTvJlwgaiXobSgt4zwyF++RvOCG2GB6T1pb0UDc/5t7BfWvOWX4EzeiUIiXcu0wfzjtcGpw8lTbrkq3QB/OI6rW3XTx+84zAAbOtPsgQGGaZhfDUXo/6IuAjGirecVXeIzn5hzS5zBKRcxgcQbOCb+/jHgK9NwWlx7kBRQ7H3Cb1xUT57J16qricOL8B4i7RC8BGSSmu3PLCUH/MVPQ34nYqNRE/CFIzYPmAForL940HVh1M4U/06HPXo2crW/iDFdQWQKJUYvrjqCQuv4yJdzK9iJn/6JmU0GGsd5YPPLpDU8OYYiafL0k5xZoOFulhGpEk6fhOKQPvMm8Up3SwsW/ERtRynUMKgQNM/Fc+kSie2uZtRSafCbfp+rfZuKtGUb3v7Ic+25eBznCXJ2x9okA3EP0v/aMGu+2abt94dmTdopV0Ka1Nw3dRKcNAzp6v4MXh6ngeJW41wX5KK0Twc2LuPHkDNRk/IJPkoSEG83YT4zmknZadTbxGdwQ4CUlym6aFAR6RhFXNdCAE7vmIM7oVQhvFaozfTMwfRNRTDDqqnXQFJeCpm+cXHzg60YMivY01u75rNlwYUDfpXiMjhFXFSOruBJ19uT77dOxKn6ZxWW1+GFA8jW52VDrHaDwJz0jDVvKkrBs9TycveGZuMXYzcWgV4dDWqJBpdDlOnuo+GE+fTr2fjS76Zhpdn86TfDR4To11GV8j+WsIL3iZ7O52J0j8H2MfyQarqSrqa8thVqt4zp7W2JNqk88iJPH+WZ0FGDM03wikGbty8h/vl4S2LZINPLDgBU4+8ODSLnEyxC4GPc+FgmcXY6dW/kkIJ/wC+M8AG57JNzzJBuvMbiRfW45pOkL5esfItzHgKIdHyA5/qIgb517BvphbawEtcmXEL6rbdNES7A/HC1B2f53seE/rRjj7q7YMtQV3b0dIXWgWeqr0J2/jLm/VmAf3+Jawt7EPU9HwLn0OA4u+qyNyk7zMWnb/fDRp2H3Q7NwvRRFp3kANQUfYW1iNjR6EeQ+KoT4+cC5Kh/JR7/DV6dMsu1VK/D9/tPII3ouU5J2RPlrCk9j07Ym5QcGoLs71aTmIYWj1INzlYp1TW8GlpEj1lYbYOckha8/2Z5QZpzee7AqvrnyU7JSfuHLljspEEDbu9lBU1p8/SxsG1RxGTayD34qhAYrIa0pRerRjXi3Kyg/xdcdYhsJ5N4q+Kv4SW6vR1leIvavWdjc4F2ch7g18UjXVBDfWdnY3lUkgbNpIuASOU8rNyI5rwIGWzf4Cu183eyJhz5RaEQoeBv71sfjklYPZy/Shih/vTYbR9a/2SzRaDbnFmHvnnSUkZ9cSrfnIcLlfetw0TSSbCQP6t+Ok7BGBI+Jr6LH0IjrKIb57v8NS7DXkXg/wBEODSTeTy7Euu9SEdWm8ovRrf+rGDCDKD/57vx937Rd1i1STloTzKj9yJ4FYDAERDHvIHpKD37EocGA2rTtOEiMV/vouBLsjg99jEGDPOBA+zii/CUJa3Byy3UGjMd9hhmvRcHhwo9YNfcLQdg6neYBMBhdDUPCe0h471skn7yI4pt+u3QHl2CvIF5K8n4c+/z16ys/JYD3AIqzDvPL14F5AAzGLeFljPvlUQRo9mPts2/f1irMLn/dikdHSpD6TSwObBaEbcA8AAbjltB5JdhtyTfWEs+j2AzPg3kADIYVwzwABsOKYQaAwbBimAFgMKwYZgAYDCuGGQAGw4phBoDBsGKYAbiTefxbfLs2Dp+/PlUQMBiWwQxApzAOoe+uw4R353OFNRiMzoIZgE5BDkXPAPj39G5fpRsGo4Po1DsBp/8rDhOMVUtrKlGcfRS/fPUBEo1VfiwgdGkCRgQJC62R+Ru+mfOhsGAmw/6Dz1/ozz9a2aCHoVyNM3Hr8d2vv6PVp0rNRijpjRP4+bFXLa4r0AgNAe71R1Xy77jgNxoD3HlxVf4pbPvmr9jVShlD+fyteHi4O8oOfoENH1pYMpxx19GJHkAMDJoc5FyikxpaOEMROhrPvfsfDOc0zjLKs1ovi9U4ZTWWqDAfUQUKuP3LQUGJAXDxx4Dpc/Hm44OFBl2EoMEY4FjK7WtBiR5in/6Y/tp/YFILpxFXJW8lXJUB3Jxh3XShZwGUGD73KzwV4YycbePx3k+CuCsR/Bb+uWA0vKtO4cs5f4WxcLlZxH6GR+dGXSfmr0DKkntxKF5YNAfBA0AJ2Z8FZH84t0SJB/+xFvcHAxmbxuMD03dlUBQPI2BaAMo3fgyNRTUIGXcjnZwDCIH/4D9j+hNv4fEnnoZfhYZzrRU+XSerLfaJwfApdP/INLQWRTQ8kbmD6JdllBYgv9EjKUA5LQ6krzCRZaG4PZVvCFXZiYLyU9TYfJEvVKcImMzNm1H8M7KWM+Vn8HSeBxD8Bt75v3vh36IKL6Uq6Wu88skmYck8Oj4HQDySVz/DU1HCSyOakYNdTz6LDcKS5XRwDqDl7yXItSe+wNzPtgpCBuNaOskD6I/Hn6PKX4nzmz7G3CfH41k6fX2q3cm1Ds8BjJmP6UT5DfkJWDP/SX7/yLSrg6rA3komqPj3oBVnMeVnXJ9OMgDBUNBguPwiErbsbKzj3y9SxWfc20H+ktZLYzdOS9YILc3ES8LtS8Hp93AwXygqLn4ZIbROdRdGNuY/GN/bnrhRKTh5M1XBGVaBrbvCf6Hwf5vY2trhakMDrl69YbRgJg4IHjEOgQp3hISFkVg1BqMffQ2TPepRLHaCWOyJYF93VJ88BVpWvlPwjMXY/h5Q+IxDgLIXgqMfx5+fjoKovIbsnwyuPcIgsS3Bhey23jhwPTS4cuE8zh84grKidoxOGOk7GZNDZMQwdUfUkEkYO/V5TI32hSMqcXrNW/g+nX8Fmim0VPXMv85GcPdcpBzKFKQMa6WTPIBT+P6bTTidT3qs0MGIHReD3i4axK//H/LLAZHMH/1GxCBUaN0p7P0Q3+3OgdZRSfZlNGKjvVF1/ld8c5xG7PZQhJP9jrI4FShQgNpzu1F+rqlcebsw6LkXrIhkSvgH+sNbbEDxpaPY/MGL+PxA64bphqWqGVYFKwlmVXRcqWrG3UEnDwMybi8dXKqaccfDDIBVoYCYDrua8cYYhnXADIBV0XmlqhldE5YDYDCsGOYBMBhWDDMADIYVwwwAg2HFMAPAYFgxzAAwGFYMMwAMhhVzVxqA/tEr8dqUzzFWKggYDEar3IUGYArC+6gQGuQM6AQRg8FolbvQAITAW0Zm2hLk8gIGg9EGnXQn4By8NIf01CLyL/l27YWN+GBnGgZNfAWTQyWgYs3x5Xj34EYYuPYEm1gMGzYDEyNUkDuQZfq51C1YvH0pf1+76nMsmRrWZkERbfJyzN+7UViaiJl/novBDinY9PUr2M/JZuO1OdMQWpOEZd/Mg2HYBrw02A0iG7KqUo09m2dih/37eO2+aPgR5wKV2dj632ewgyth9DReeHEG+l/Zgb+dUuKFsZF8m7oKnI37AMsuJNJGFmFZyfQoBH+6GLE9gJxN87Br1U0+ZsywGjrJA8iBOjsbqRlqrgSYrPcYzBz7Iib7GaDO5GXyQTPxiIJrTJR/GmY+tQAzB6sgrStFbkY21BXkc72mYFZfvvwVGkiPT+SpRbTaJlBVRLffNJ3KTODkHH4TEelODFtxNv4QRFAEQ0ktT1kpUsksVZNF9iUbuSVke85KjIz+HM/fHw2pzihTYfK4udxHIQ2BnxOZ20fihcmRXJvUQrKDdhKEDyVGhW9lAZaWTFdBoaCvGLGHm4+KFzEYZtDpzwJMnLoHk+k1W0J63jXzcJbszaDx2zEr3B6ZO8Zi8XklWV5FloHcg19j8bEtvFfQdyW+GqeC9thSzD/YVPs6dPRmvBYpQepvY/FpmiBswcj79+DRnkTJt8/EpxeEwhm9yfYmku0lEU/hd6OnQPBajA9nREJ2VY/MPe9i8RnSmzssxD9eioGyLAmfrpqH1J7L8fn9IcRz0ePsllewLCOdfHAu5r0xEUE60uZb0obfWjsxo2R6v+cQOhDI/+kblFcKMgbjBnRyDmAavLmiu3qc2ssrP+XU/kVY9O1CrLhAFmxmYFQf0rsVHMXXgvKLPRZg3hBqNSqQlmZa+F6JIAWteFMKdZuVup5GLz8yM6Qjyaj8hFCFnJtrik2Un+LpDppSQH4CVlDlp9Suwxffkn388WtOsf085FzYYkjfgRWc8hNsHDgZ9Pp2Fjq1sGT66W+QuoopP8MyOtcA2PSEkg7V6c5hn0nGzlCbgFxdArTUIPiroCRxuMEpBC88sRlL5uzBkidiESQh8fX2D7CqWdHAGHi7kplBg4K2RgAUYQik7nr+xSb3H5EI704NRwU0V3iJkXBP3jBkpqxqLF4KpEOji0duFa/sQVyVDdLmwtKmnIW/EvSTVep0y5ORtGT6ii/xzsuPY8K40Yil0zD/dhdMZTDaonMNgNINVP8N6oy2XWSpM3fhi5zdIbetIHF+Evb8Rtz0Tx9sJbmmgpxWGy5W4xQvuBZvvkfXlmQ3Kav7NERy1X6J4WhmUJTwc+c9itw2i3/G0k0S1Ei9yAk4ZMRzoPutK21zT9qg40umMxht0akGQOTpzSmjpvA6WXJdJXfhV6VuwPzvSMy+fR42pW2E1m4KQmlv314ajzwaE0dHQk69DV0JmtfJFTyK6gJktHlPAfFi6EHoCpBpkk3p6Uatgh7qK5bW3ur4kukMRlt0Sllwv76fY9Y90zAquDtkjkQXxaEIC5yCgKqtONtS0bTO8Ow9EMH+/TCyx0iEBUxB7D2zMX3kUAyWyrAn9SgahKbEGUfffpFQuvtjaAhpS7ZJ205wqUB8juBjOIxFbB8PuHj1wkCvcRg2/GEMtj2O/eruCFC6wNPOFwZtL4y4dw7G9opCiNKJxPJOUHiPQ5R/D+RlHm5+f5H0Idw/qDvE6lNYc/6wIIzEPYMnIsilCEd3/UwCBktoX8l0+makh1+eBXnDKmSeFYQMxg3oBA9AifBeYQgNVsFP6MHFHiqyLIeYH8FrwUas+3EjjuVVQCSn7cjnXPTQZCZh6+EdTW48x3r8d3siciuN21RBKapEQZnJhnMXYXUiHWqUQEnX16Xjx41vY9NR8rkqCYIGD0GwRxj6k3WhwW58ryuSwI8uk3jlmnjel4/1aUjRRH8o6LGVFyDXYpvZnpLp4+BC7ztACUpvbriBYWWwkmB3BcK7Bh3TsPuhWcgSpAzGjejcJCCjgwiAK82magpwE+8ZYlghzADcDUSS8InMaouyWLVfhkUwA3A3IAHqa/QozD4pCBgM82A5AAbDimEeAINhxZhlAAz6Wtb7Mxh3IcwDYDCsGGYAGAwrxnwDYB8DRZ/HoSSTuyf35AyDwbjDMWsUgMPtRQyZOgD0ORVK+bk1OHLYpMoOg8G44zDrYSCOmjQUXjyLnCxbOAd2h5vSHRUnD4DVn2Aw7lwsyAHoYCi/gFr1NlwpFUQMBuOOxvIkoE0MFB5kXlpgUiGHwWDciVhuAHr2gqcNoM1KuMF957RUdTye2xaPCbOiBBmDwehKWGwAnGT8Q/z1dc2fxL8WVqqawejqmJ8EFKgrEcM+sCeUgTHoHtAftvaOqCrMwLX3CZ5HXrotKrXJOPnteuhvZC8YDMZtx2IDgLpslJfaotbWA+4+nlD4uqCsrdGAwpPQJJ1kys9gdFHMvw9AoFvI3zFilD+gTsCJ3+NQXslKUDAYdyoW5wBEMjH3wovSzP8x5Wcw7nAsNgC1GTkoJ3NP1f28gMFg3LFYPgxY9jvy6I1AnsHg3odxHWip6ue2JWDco4KAwWB0KSw3ADYK2NuRuUgGZ64UdVuwUtUMRlfHfAPg8iwin/wSI/78FILoE0GlGbhy3QcB5HCg7+DTF6PY0pfjMBiM24IFHoAWtfQdXTXFUJ/bhoSfv73BnYCsVDWD0dUx3wCUb0DKxr/gwA9v4czhzai+0eAhK1XNYHR5LM8BmAsrVc1gdHksvhGIwWDcPdw6D4DBYHR5mAFgMKwYZgAYDCuGGQAGw4phBoDBsGKYAWAwrBhmABgMK4YZAAbDimEGgMGwYpgBYDCsGGYAGAwrhhkABsOKYQaAwbBimAFgMKwYZgAYDCuGGQAGw4phBoDBsGKYAWAwrBhmABgMK4YZAAbDimEGgMGwYpgBYDCsGGYAGAwrhhkABsOKYQaAwbBimAFgMKwYZgAYDCuGvRuQ0TWx8YZT9xjIpCJU534PrU6Qd3m84RwyGi4OWlRmHkR5tbk7LoWD3wS4keMFilF6Lu62vFXbyg2AEuHDPsLMMODUb2/ixwK1IGd0Hk5wCHkVUSOD4WzDS64cfA7Jqfz/XZ9oBD3yLIJd+KXa/AQc27HmBq/Tj4bflKfQy4MqP6HmAo6uWwItv3RLaZcBEEln45Fx92KwvwQiepKu6nF2231Ylsav70z6R6/EKGUu9m1ZiFOCrG2mYdazszFICmiTlmP+7xsFOeOWMnQl/jRKhbx9Y3HoD0Em0C3k7xgxyh+iq9XIO/4bLmXmoI4ohMEgNOjyOKGbswoO7tFQRRPFdiVKXZqIA5u+bbtHD5qPUbHBEOnO4OiOONQ0aFFbWSCsvLVYngOwmY2XnpiGYSoJ0Ro1UjOykZqZjtwSYX0n491dhdBgP+KImcNGbPk9EWcvJOLXRKb8nY7NeIREU+XXIePX/0NKchyqy+8k5adUo6HyAglb1uDCxiU4k0923i0aYeHXuSJrDWggs+rLJ6Elx3u7lJ9isQGQDYxBqAPR/eTlmLtqJj7d8gyZXsHWYqHBHYYm420s2/42DlUJAkbnETQAPk5EHzJ3IfNKtSC8k8mA+o8zKCf/KUIngahN6+RnoJjYCSefvm23uUVYHAKMnbIHU4MrcOyHB7GqFUMVOnozXouUIHP3WCw+Iwi9FuPDGZGQZe/Ai5uW8LK+K/HVOBUy9y5Hbq9ZGOlrT0IJYlgy47Fi6yJkNtsrJYIiFuKJwf5QupB2BENlKVKPrsPqpC2owlzMe2Migrg1rZGNrR8/gx3CkvG7TWm2v40ooQyZi1ljIuHnTBbJPlXlJ+HnX+c1MxgTp+7BZBX5jh/UiJxM3D7atq4CqftXY1nyFrSrA/OYjdD77kWohwSO/CFz1OftwOY1S1AvLMNhBkIenY5wbwnsiTmv11cg59hqnNy/pakNhxLOwxZiyEB/uDrbw5ZI6qtKcSlpHZJN29rFwuu+WRjYi7S3I8vkOAou7ETi1uXQ8y0I0xD26myEIwl7D7lgUGwIpKRtfa0a5/csJT13otCOIOxfhK+E+86awkTsu6DEvSOvDQFkI77E4J7kbO34C9LyBKEJLk62mDnGk+y/HbYd1eD0Jf4kDAiR4N4oN+SX6PH971egr7M4qr0urhI7PBHrBTtyjN/HF6GwrOmXGBDsjImD5Mi+UoN18VcEqSm94Dd1Lnq5FeDMynegbnXXnOA58XPyGxHPZ9NcZJYK4tuAxR6AiF4UFOqzdADKIbMw1LUSuSSUUJPzKQuOxUtjZwhrKUqEj16OeWNCoCRRhzqbhBzZpTCI3Yh8DuYNjiVt1NznaTiirqSf0UMtLPNTLprZqrLcxnW5ZYKsFUQ9F2LBZKL8Yj005HtzNXqIfSMx84nPMUhIUDXhjbFE+eVVZLtk/6psJQgd8wJm+QmrLcFuNgY9NY1TGlFdKfLId+cIk7qo0kSxiSI+9zQGkHYNWn592VUJAofNwdDYaKENRQnp5OWYNDIEctLDlhWQtgXkN3R0QwhpGzOW/oZ8O6/pb2JkOFH+ev57NfUSeIdPw7hpTwttTHDugyHDQogbRbZXWEGUnZyrSXPgLxXWIxK+j/L7h1p+e6WSaAzp39jABCc4SfgMuC6fl7SkvLoee5PK0ECUaHi4jFNMdxc7xPSRocbQgL2nyjpc+SllFXXILKiGxMEWYSryA5rg7+lIulHgYl5bHssF6IpoF+AKsYKXtEZtDW0jgl3zzd9yjOp8XfzCPye9Pu3WiIJyByFBzxEr8ZrREKrj8WniemHBMsS157B4zTy+x7eZg9denoJQVX+EYj24xK/DLEzuTy8g0sOuJr24secVz8ULoxyw+1g8t/jjFv77ud7YuQBHSWjS2OO3JHchPs3l/zV6LNcSi6lDQsgp0ePUz7PwdTYdIVBi5P2r8GjPMIyLjMSxk0l8Uw57VKcsxbsH+R5f1Gs5ltwXgsCQaeT7LMwv+AVDTnv9gnhsWr2Il7XG0IkIJ7qkO7ccO7cI32H3NCJenoHQvtMgjU8ENwglnYWIcHKM+mwcWvkM8ow9jNtcRIx3QPo+/jeE5xyEB5IvrkrB3i9egaaOyKgxem0aAnuOIYq9GjnNRrXsoTk8G0eOpnNLjvdtIOdKSa4XIIf27J7T0MuXzCuTsHvZPOjo9hCNwOfexyD6bzP6Qcxlzkk8fB0dTiOKdvxiOYb2kmJ0P1euQ3IRd0PCWR1yi27dwNnZ7Er0CRAj0MsJCXY6GIihcSIul5ebPapq65FV2PZ31xm4A78W+xgoIojHGNgLCnIea4tOIq8N43erMMsDEHv4IzSYJtdUUPJ2ADI/fpmbuit5YTvQZic2uftXC6BraUiDguFHLKz2wo4m5adULcHX21uGCh0J6fnlZFZ+Doc45aeosf9MOgk5iCnwMe1hKRXITGty9w2l5Vy7dlFZCe5n8I7BmBmLERg1A/bO1/7GUg+6g6VIP2xiYOpW49Il0hs7u0MYiSJeaDCXFK28uKNJ+SmlS5D80yJUGq/PACXoFisvHeCVn1K3HJlZ1NIT76AHL2qCeEWC8lNqylqMeYfw2ytLTxCUn5KInIybG249eEaL3OJahBOFDO0uxiV1LQ4QA3AroeFFsbYOnjIRgpSk1yd4uoogc7ZFaXkdrmjbEejJBqBnBFF+52oUp/6O5N//B86BvY2YZQBSf38QL348lpu2ZlNJBY6t55e5yRjX3woEH0VXnMD/czvhhjhpn2RCTS3fwzsIlvBWcGUhDm9MwCUtcRxVkRg04Wk8+Oo6TH15Jfx9mwyBiyv1XNww4Nk9+NOCpunePi08GuE3LLvRbyi0q29hVA163tWzb2eGqrJ0i/AfTz35Da8lB7Vm5v2om097fDqnve++02W4evWW9QQctMdPyamErZ0NQrx5P93PwwH2dt2Qnl99/e+/JlwUKPocf3w7F/t2HES192gMnv4W/Bqt9u3B4hzAbUfoOeReE/l/bif0nJKTJ9yewePowC0bam+trdanLcSxZfdh03/mYfPGLUjOKEW9VIUh0xeQaJKnvIz09CREKUiOx5FDLacEaPhmTb+h9w1+Q6GdbYsLVmTPZyH17fSwnd2mCP/x2JLf8FoKUF1BTasHXDx5SVvYEyUcGibl5mISl48ioYCNTVta1nGkXa7m8hBBxADQ/EOAlyMxQg03CD284aqgBqMSta3e2UPCCfUGXKHDADbOsL/NOYAONwDqCnpRkrDBqclF9usRAJnwv8VkZiCXKKK4zxTM8r5xqMGHW94kcmh/WMKThFyqQS59MExl3JYSI/uGQEz+U+ebZLpvJXVJxBgsRepPPyGd2hyxM4y+h+6ymqi/PeRKEosfWoSc/abTatQI7XAhg0uCOvacgrAe1/ldstSc0XAOHAG5MTtkNxtBAdQAqFF4kReZTV4JaI7VNSSGGyXgiYZ/G+emrJhqiBM8VH15QRvc01sKP097pGRXkdi7BoFKB4ygyZBbTElFHfKL9ZCKbRGuEsNdKkIJcf9peNAm9qPh6UHm5QUwGTxowWgovEm3YshHaWsDCbeQDjcA2oxsaIjCKof9A/+auhKvPbYZr7lrwOXcFEPwwqBplhmD2kXYdIwErjYSDHpsHZY8QbY5hZ/+8dxyjBSaGTmWmU1cdHuET16Ff9Dvp20fW4mZXkIDxGLsuKZtTA3k3WVlf6NsIfpzknhsOpLObav/w6u4Y1nwJE0AEmXQJWFrkmkCsIMJfB9j5m7G8BkrMYSb1mH8m7MRRjVfk9vUs59YjWN5xAR4xWDSG5sx5mmh/TObMXKCSa+rW4TkU8SDgATh09dh8gvG7a7EmFeXN900dWUpzl4iV6k4jMg3YBi3fhpoXlB3bnOLBKAZZG/ExSIyd47EOGF7w199Hz3sWx/narhwBsXk2nHp/SA82+gJA0n8HR3qwmXm9yaXIe5EKSprGhDVQ8K55K0RujQBz21LwLhHBcFNcCarAvUkRoru5QIXR1tcLiYhYZsjD05wHjgECuKclGf+3nZ879YL7uR4DblncLvvp+v4EKBkKb7YmQ5tPemZVCoEOamxdc9FPo52dkP/iGjSj1pGasIcvLs1EZnE0ooUTclHpaME3u5CIwHtmQ+w7HdihPT2UJLv59oqvSFzExrAHf5GOZn8BH9a7GGUNd1FaCBu+KKtxBOo4o/FT26PqrwkrPt+Hs62dc47Arkczrbk2Mh30n31Jx6ICyqgyYjHtu8WNvXsSETemnex91Q2yhokxMUX2ntJIJP6C214dNvnYNt20l5LfkO5cbsquIokcKaZeg7Sy2/4CPvPqlFp6wZfsl5uW4GCsxsRbxxlsIhEXFq7GsncECG/PbeKRBxJKDA5BhP03yPtDLEy9v6IeGAu6WGb9+pODt0wLtINtiRGOXhWyxmBwjIDDpzRwlHUDROi3LiwoDnj4MK5TCUo7YDnCTLVNSguN3ChR13DVWTkt3okpMPyhsugdzAojGi2PgNpx6+5yaQJuYJP2NqJbntMzp4GZHQxgqGIfRWRQbwL0GAwIC/hLzSKaSePYtgPLyPMMQ27H5qFLEF6M3i5ivDYaE/oKuvx3/jCFh7AAPhNeRY9FUSZqS3SF+PCzveQe707G20mIeyJB0HvhaPHa6g4gxObvrotIwJdPwnIsDIyUBz/f9i7NQ4ZGQUgOnaTBMCVOhKaguY3g7UTqbMtJg12h9i+G05lVrTp/lcW5SD72AYc+OGt6ys/5eo2pPyyGWnC8dJN3i7FZB4A4+4mcjGm/+seOJ1eg7VvfSMILYNm/O8nSu/lag9HBxuinDY4fakSWxNLbvnw462GeQCMuxsJve9Aj8Lsk4LAchpIrC8T28KWaIu6xIAtR4rvCuWnMA+AwbBimAfAYFgxZhkAkb0DunWjD3MyGIy7CeYBMBhWDDMADIYVwwwAg2HFMAPAYFgxZg0D0iRgfV0dGhpu+rYsRgfzQA93vDTCA8FywZZXViPljzy8lGTAZV7CYLQJ8wDuYJ4ZFYiPH/JCsLsNdPk6ZGRVo1bshLBxQVjWS2jEYFwHZgDuYHalleGyuhiffHoBUevycO//snDvhhLUktMaFtaiKhCD0QqdFwIoF2DePcGovLACX543Ka7h8ir+MqEfZJfj8MGRnwShESm8vB5FVI/eCHWVwtERqDj/HZaeq8SIUS9hmFB1tUKdiP8l/AinHvPwQLgPJLZElhWH1cd/Al+uxHxEigV4fuJghCqEtyDVVUCdfhQ/7l6E1Ga1wm5A7Gd4dG5UU52+a6hAypJ7cUioz9l+XLDzr90RrC3Ch18XY6UgNSKfvxUPD3dH2cEvsOHDHwUpw1rpPA9Ar0cdUUyZS4AgEBAq3mi1zR/clChexaz7P8Gs4dGIUDihTqjUV6w7Qf6eRHFRPtJz8qGpJW2VAxDT92U81EcCbZ4gCxiPiea9LqgRkfdi/POJWIR7SGAo5suIq2slUPaKxWt/WgiLKn6XFiD/YhZyrjMVd0Q9eAdb/uUSpbXXKD/FVckXUHBVtvjdGVZJ53kAjs/j+fujIc+Pxwd/NJUUl4X8G3/pr0DWH3PwQz5fV1fi8w6eG6qCY00xThxbj/jC0wiKWo6pgQaciJuDOJNKNV69l2JWHzFQk43tu95DMrETjgH/xusDFdCeXYYvL5j7UEgkJj+yGBN99cjc/S4WnzF6KdGYOO5pIGkhdhR3vZeJ3jPQD2tjJSg6nIahB1s5X4qHETAtAOUbP4bmDn2bE6Pj6DwPoEaLUmp6XBRorNaFfohQUT++GJlXhKLaLi/hyXuI8pefx4Zd/4c4ovx16A2lCy3NWQYNfe+SCUoZrdgH5J3+llN+Sk3ul/jyt4+w9qIlT4TFItSHzMrPYUej8lMSsWP37C6p/LSo5PxhJPav1WHf0TaMdfHPyFrOlJ/B04lJwCxoaUAukXG14zncxyOClu4qOI1krrinGGGhfSGzqULysS+Rboy57aIRQO1EeTEuN/NfhsOLlvi6mo3kXJM3LNRnQ1tzHhWWOjA05i8r5V9QcrPQHMA2vjZd69NODDO+oKc92Iiw7LHuCHNoQMa+AixoZwVfhnXRiQYgEYW0CCzptVxoxVib4Rgf1RsSVOHE6fVCzbgYBHiSnr4qGyklTa/ZkAdGgCtjp1WjkJMI2PhDTpPfGjWybhjYmAHdhkIpFAm9SW5lDkDkiLWzgjG+O4jrn4VnkzvovW2Mu55OHQbUVtMuXQyZUzAiomcgSkZk5/6HuEa33g2cR99gEFJ+BOmreEQoAd0yUUjDCeoY1JQS74KX3ATxSKVOhFMYpo6e1vzdAO0h6UMceG0mdrU5zUZqOwoNP9DDC3+8Foh73PVI2ZaOPx2sZTcAMcymU+8ENCb8KsqrIHERo+ZyHL45YjpUF43xE55HlAvt7LNRRAxCgJcTLh8+grp7hiOkMhuHTv2Oo/reeCBESUv7IkQhRp02H1laAypzN2B7wXlhW+3A63386/FoyGkoUFmKXLWOe92XWCqH9tiDWHaBa9V59PHFxUnUGF6FTl2OohZjnBnH8/BSjrAgIH9nJx6OlqBs/7vY8J/dgpRhrXSuB1DJ1z2lyq9J/amF8lMSceDYae49dTKlCiFSPdKOrsAP+XFITtehzlmFYb16Q+XdFyH+ZD1RfoqdzIdbltnchPJTCt/Guys34lB2BQwObvAzlhJX2EMm64Q3FbWksQS2DaRKKYJDWkyNpdCbcJHxNwiV5TDlZ3SyB8C43Xgj7MsNGKYqQdLfJuP4LXy3CePOoFM9AMbtZiTcqFdQk498pvwMAjMAVoUCYvpm61JN0+vFGFYNMwBWhT3qG/Qk/k8Du02AQWE5AAbDimEeAINhxTADwGBYMcwAMBhWDDMADIYVwwwAg2HFMAPAYFgxd6UB6B+9Eq9N+Rxj+YcGGQxGG9yFBmAKwvuoEBrkDJiUCmMwGNdyFxqAEHjLyExbglxewGAw2qCT7gScg5fmkJ6aVtkg3669sBEf7EzDoImvYHKohCu+oTm+HO8e3NhUCMQmFsOGzcDECBXktOwt/VzqFizevpS/r131OZZMDQP/QPC1aJOXY/7ejcLSRMz881wMdkjBpq9fwX5ONhuvzZmG0JokLPtmHgzDNuClwW58KfBKNfZsnokd9u/jtfui4UfLFldmY+t/n8EOrlDR03jhxRnof2UH/nZKiRfGRvJt6ipwNu4DLLtgWlPQXAZjwsvPY3w/f8jo/fsEgzYHZ+LW47tff+fqEjQRheBPFyO2B5CzaR52raKVkhmMG9NJHkAO1Nm0zLaau5Blvcdg5tgXMdnPAHUmL5MPmolHhDr/sJmGmU8twMzBKkjrSpFLy3NXkM/1moJZfZV8mwbS4xN5apGeW6wq4st4G6dTmQmcnMNvIiLdiWErzsYfggiKYCi5OqN8DcBUTRbZl2zklpDtOSsxMvpzroqxVGeUqTB53Fzuo5CGwM+JzO0j8cLkSK5NaiHZQTsJwocSo8K3soDBmP6vdzB9MFF++0oUXMpBTn4lRDJ/DJg+F68+IDRrRAWFwp7M7eHmo+JFDIYZdJIB2IJNW5/Bp1tmYg9XscYN4b5ZWLFiOhYR2Y/nqBJL4O1B1ykxaNwsDHPXI/fgUsz9mrZ5Bu8eyaYrIXeN5ubIXUi2R3rky7wByE2k22+afrzUVMV3ZATvKaSeW9/kYXi4g4scitN42YV53Pcs2nGOKy8mCg6BKOFtzP+ByH44Cm5rciWv3Eo5uHyjtzu0W2dzbT5dfxCZVNaeX3jM4xjuTxRaewpr/vIQ/v6PZ/He/IfwyrdHkZH0K/73q9CukZ+R+J81OLBpDbZ98rMgYzBuTCfnAKbBm6tao8epvfNwVghGTu1fhEXfLsQKWnLLZgZG9SHKUHAUXx/bwimn2GMB5g2hPV0F0tK20I8IKBGkoBVvSqFus2r30+hF3+hhSEfShaZGoQq+NrGm2BgmCHjyhgH5CVhhLA9euw5ffEv28cevOW/Bz0POhS2G9B1YkZHONYGNA19HUK9v4a7fmAHhKs5AFRz9GAdNPlx14G/44JOvkSEsN+P0N0hd9Q3K+SJLDIZZdK4BsOkJJe06deewzyRjZ6hNQK4uAVpqEPxVUJI43OAUghee2Iwlc/ZgyROxCJKQ+Hr7B1jVrCxwDLxpWXCDBgVtjQAowhBI3fX8i03uPyIR3p0ajgporvASI+GevGHITFllUmg0HRpdPHKreGUP4qpskDYXljZ5FP5Krtx5lTrd4mSkiDsrlSjK7oLvHmDcVXSuAVC6ca6zQZ3Rdu19qTPXG4qc3SG3rSBxfhL2/LYc8z+lRTlbJtdUkNOX7xWrcYoXXAtx0/lBguwmZXWfhkjutWHEcDQzKEr4ufMeRW6byhhLN0lQI/UiJ+CQEc+B7reutM09aRMDV9XbGT4hHVKQnMFok041ACJPb04ZNYXXyZLrKjkXuip1A+Z/NxOfbp+HTWkbobWbglDa27eXxiOPxsTRkZBTb0NXwsftjQgeRXUBMtq8p4B4MfQgdAXIFEIYSk83ahX0UF+xvPbWybPZ3DErhr2M6cG8jMG4FXTKMKBf388xNYj07HIV/IiC0Yx9LlEw9cln8OM1/vI0zJw1G8Nou2LSjvjhYjdv4jzYAxlbMHeriduNGXjhhafR37lpm7StOONr/O2gkCvw+xxLpodBfLUC6kwNDB5kH/SJ2K+NxsigCmQeO4h9Z0oQPCqG9P9S+AW7QWwgnkeOBlVVKdi0e0lzl176Pv71bDTk2Tvw4qYlgjASUx9bjLHeamz9ZCZ23PAXbkl/TH/3X5gQSDP7xFvJz4GWK+FjD5k4B+vn/Q0tX3IWujQBI4KArP/GYDd76S/DTDrBA1AivFcYX15b6MHFRAlDg+UQ8wn8FmzEuh834lheBUTEYHCfc9FDk5mErYd3mCg/ZT3+uz0RuZXGbaqgFFWioMxkw7mLsDqRDjVKoKTr69Lx48a3seko+VyVBEGDhyDYIwz9ybpQqvz0MyIJXxKcxCvX2CdfPtanIUUT/aGgx1ZegFyLlZ9yChv+8Rq+2ZuO4nI9ZD7+8A+kkxIymQT0lYXNGQcXet8BSlDaIe8xY1gLrCTYXcGjGPbDywhzTMPuh2ahxfuSGIw26dwkIKODCIArzaZqClDACxgMs2AG4G4gkoRPZFZblMWq/TIsghmAuwEJUF+jR2F2y9Qgg3F9WA6AwbBimAfAYFgxZhkAg76W9f4Mxl0I8wAYDCuGGQAGw4ox3wDYx0DR53EoyeTuyT05w2Aw7nDMGgXgcHsRQ6YOAH3YjlJ+bg2OHDapssNgMO44bN0V/guF/69PTRoKL55FTpYtnAO7w03pjoqTB8DqTzAYdy4W5AB0MJRfQK16G66UCiIGg3FHY3kS0CYGClqrr7TApEIOg8G4E7HcAPTsBU8bQJuVcIP7zmmp6ng8ty0eE2ZFCTIGg9GVsNgAOMn4h/jr65o/iX8trFQ1g9HVMT8JKFBXIoZ9YE8oA2PQPaA/bO0dUVWYgWvvEzyPvHRbVGqTcfLb9dDfyF4wGIzbjsUGAHXZKC+1Ra2tB9x9PKHwdUFZW6MBhSehSTrJlJ/B6KKYfx+AQLeQv2PEKH9AnYATv8ehvJKVoGAw7lQszgGIZGLuhRelmf9jys9g3OFYbABqM3JQTuaeqvt5AYPBuGOxfBiw7Hfk0RuBPIPBvQ/jOtBS1c9tS8C4RwUBg8HoUlhuAGwUsLcjc5EMzlwp6rZgpaoZjK6O+QbA5VlEPvklRvz5KQTRJ4JKM3Dlug8CyOFA38GnL0ax5S/HYTAYtwELPAAtaun7qmqKoT63DQk/f3uDOwFZqWoGo6tjvgEo34CUjX/BgR/ewpnDm1F9o8FDVqqawejyWJ4DMBdWqprB6PJYfCMQg8G4e7h1HgCDwejyMAPAYFgxzAAwGFYMMwAMhhXDDACDYcUwA8BgWDHMADAYVgwzAAyGFcMMAINhxTADwGBYMcwAMBhWDDMADIYVwwwAg2HFMAPAYFgxzAAwGFYMMwAMhhXDDACDYcUwA8BgWDHMADAYVgwzAAyGFcMMAINhxTADwGBYMcwAMBhWDDMADIYVY9aLQUT2DsJ/DAbjboJ5AAyGFcMMAINhxTADwOia2HjByfchePX6E6T0NfNGpGM4mbtvf3SzEWSMdsNyANaG3UMIevxRBOE8Er9fiPI6Qd5lcIJ90F/Qf1ggxIKCFx1+Gecu8v+jx3yMuqc7//9VHXJ//wYZly/xywyLuSsNgH/AWxjorsXFlC9xpkYQ3u3YjYJH7KPo28sPMnteZLj0G37b9BW/YCRgEcZOi4ALKpCy8RGkZgnyW0no2xjY3w8lp2YjM1WQtUG3oPkYGtMddlerUZC0EzlZuTDUpqHOIDQQdYe9AznGsLEICiVego0BBQcWkOOoFhowbojHQ4gdGQr7y3F3YwjQH4EBfgjylaHOWpQfXvB48FXE9COK0a0Chbm5yKVTYa6w3oSsX3DydCYyT+9G5u1QfoqrH/z8/ODhKiy3hc0YBEZR5dfh0s53kHp2L6orTJSfYrgMfcVhFB39JxJ3nkMVRPAe9BwkwmqGGRTtRmox6TN8o+9GAxAMuQuZlWtQyAvuflyeRY8A0u1XJmPPF4/gj59m4ziZkhN+ExqYcgwlcXOQHPctTPWqSxDQH95OgD5rL7KLzOjRi75Dei45CqdA+AYIMoYZVCDvXCqqbGSWhgBSeHZ/Aff2CoSnmJfUVWlw/sw67Cps7ts5uz+PSeF94O8q4pbrynKx//hnSKqq4pYp/n0+w5+C1di14yg8oyair4cYdkSuzd6J709vRSXfjCCGTDETE8L6wEcmgp0x+UO6Bu2lrfjm/F7A7VXMGR6KtoKVyrR1+OrCH8KSGTi8itefHI/AboX47b+zECfstnzAKvxjqBd0Z7/Fu/t+MV+JRn2Eqa9GEte7LSpw4bMpOLJPWLSEgcvx0Cg/VJ7/FnHbfhGEzfF5fBuifYQFjlwkfjQb+cISxeW+nzA2TOhL8+Lwy1E3DL1vELzIj1qvL0Xm75/h7Jlj/HoEwTnmdQzs2x0yZ3vYClJ6HCm/kNAio7XvbE7+wUlITBQWCNKhn2BACNmzPa8jw3THrkfAXMSMCIQhdT3Z1mFBaEokghYvwgiy3cubF2DPmiRBbu1I4D18tiUeQCB6R7yDJwcQ5bfXIf9yLjKv6Ij1laNv9NMYaeKDOSvfwqyY/vB3MeCKOhc5pQbYETdwzNDn4C+0IYEh/N2ocRCj74Cp6OukQ06ehlN6WcBQDDTZnnvgW3huKNmexIAS4tZm0u8mU34FcKVEOOnEbcyj8hJeUytLmtrR6UzhKU5uNrWf4YvfM2EQeWHChHmQU5n4bcy+xwsoS8b3+y1QfkqZGur0HFy+zqQpE9paiqB9Ddcx5ZXkd+PCgtxCaNtI/OmLLjetd/BC6KhBEGvJZ66QH9reDT1GPAoZ3xQOY97D+CFBcCc9dsUV47bpdBlVer5N43eW8AJ6Tpra5aKo2fE6wUlCr4cSVBTwErPIV4NchXByUfLL1+APdzlNithD5t109TEqUEC8APM9AM95mDMkkPzg+7H2xE/QGj/l8jQmeWZiV8Z+cNeVzWRMufde9Liai117P8AZTksCMWToPMQoqpAU/yb2kusJuBdTJk5GD3LOKy9twjdn9nKf7zvwS0zwMW3XHyNHPY9BUjX2/voekm6wt549P8KTvUS4eORVbLkiCNuNFwbGLseTYfa4vO8rpPV6EbFeFTi+6RWsVXdygOHxKsJiexPzSXD2gp+7PQzlhVCXCdpHeviLP70PrbDUxEMIffFZhDlf6wHwCOsd9ChMWYk/4mgYEQHVnxdhgKLpM3zvXoFU0tunkN7+ukQTD2W43zU9fnMGQfXwUwiUXMa5tR+iSJDemIfQ58kx8Mjfi317Wvd+ED4LPaIA9cZVKG9yKxnECzDTA1BiUGAgca91SDpnovyU8tXYZlR+ilcfTqlLLv4qKD/lEjKLm1x/DkdvyKnBN1zCvrO88lNvwI7bo2rUNm5QjSouHFQiJuYtjPEdA3c7If64BjF8Xek6HTS0W7hpCnH897U4Xg50H0WUn3QymhMrO1/5KUTpffz45BpVforIhRgCo4xMzpy0ndiVIu+wMYeQjOzvJuEXE4NRU0sNjQQh41chfOyrcPcbZBIGdDHOrsLFNUz5r6XCXAMwDH6eZFaRg7Qb5GY8pdRZrkL2lbO8QEDmRLXdBKkC9P6OuvwzON9oUO6BJ/Uxq4uR05jBV+PY8dXYm6VBndQPkVFTMeu+j/DaiHno7djSEPSHOw0dDDoUdtQIwNVf8MNBEgrQ/6nrfySOE1sMzQH8shd/bnPagiGjhLbmkEXi2Y+oUpLpIJ/tL0/5ll/mptZ6dwuoLUU5MXxtUbKFeAephaghoUKP/uMx8pGFmPzGLxh637NocabNJAf69ozk2bTv2xg8ZucAuMSbrhA38qq9pIJSNnPVw+ElIyfKUIgczq0nBsFZyiX88osP8AKKHfEKSEx5TQa//hiSTv8dX22bj28O7kdSfhXsXAMxaeAjjTEpD/k8NQClBeRy6iBsHsJjQ4P4i9o1Ao8PGc+JLeZW5gBuBXW1189x1P2Gwl9nIe7TSdi64ivsP5KM/Fp7eIU9hEHDI4RGllCI6kr6jXJIPHiJWXgruWtAX9UhLp/VYbYBqKMK7dYdQaa3X9oo4eNJXHJhkaKtpidRDC/3QF5AcFY+gEhX0qmQ3t54Q5cnd39nFTRak9DARc4l22rLC1DLS1qgg7b0J+w9sQPnaW/hJG1hADoaL4QNfxQDyb5f3vcLDhMFlUc9gyeVXsJ6Czj1EQ7Nexp72pzm4KKFecquQr3uN5QkLEDiCd5si12CuHkj9fxM7vMs/08b6Li4zQlyvz68wAwkKj/QAEhbZMEID6MRW3eF/0Lh/zaxtSUnRjIUPeWe6K0aju6yQQhV3Y8JEeMR4d8DjkU7cVFw37Q2fRHV3Q1uXoPRyzUSPQIfxNgQBez0udh79DtcaaCtQhHWYyi6O6lx+kxCo1fh4Hk/hirFyL+0CufK+f6nR8RnmBU1EVHeg9FdPhS9vWNxT8Rg+DuS78rYid81pje7eKK7H/E2XP0Q7hEFf8VQRPaYjkH2aiSVqIU25iPyfw9vjPAB8vbh8wNf4GhuTwzuG4gQ3wBkn9lrQaLqFtP9fnJeZNAXnUTmxQuC0ASaMHzgaajC74dPeBg8XCVw7OYEsd9oeFCZ0pn85h7wemA+ekcK6+0kcFaNhVd4BCrPHWxhkL3gNW0d7hkyGu496Tbvh1/0E4gKdSc9ih55Jxei0NRVLA+GrH8w3BS9EdRrBGTcZx6Gn2835GU07e9VrSekfVSQuXmjMiMBVY15oDZw+hN6DAmBc8MlZBw4gLYiiB4f78Xk2U/BrWEtslIEIYPDTA9AjfNJJA7P0aFOJIV/dz8EuTsRi52Kvb9/gG0lQjPKlWVYfyIX2noR3JV+8Ceuf0nOfqzdbRwRoITD043MKrTNXH0vF8Er0Bm9glA4cglBERxclQii39tdCaleg/MnV2N1Wkurv58YmVMgEQKc3fn2nnY6FLbnhnebZzF7Qi84kbBl167F0FBZ6UJ8cZjsMQkFnhr9ZDtj3U7ANGHo5wUZjb1Iv+lulHnRITQ3uJLfq3E9MQBewvprk4mD4ExCLbG78Hky+bhLUKfLxdm4z5B8RmhmpPwzHN+0D9k6PewaP+MFj5ZDd/r/IT2FdDb23dFnwitwbfYUUHO6SR9C6KQR8CAnQXd+J0raHB0aAxfuAEqgNbqfjEbYw0CMLkYg3Ef8Bf0CaDIIaDAYUHDkdVw0Pu8TOBdDhwTCXrC+1Vm7cOLAr02jUNcwHUPWzkYvh3T8/sgLyBakDB6zcwAMxu3hEkoOvIMDO/bi0qVCVHEhYwsMGhRdOodzO/6JxOsqP0UFV3r7paYAltxfZC0wD4Bxd9N/ER76RzSczq7H939fJQgZRpgHwLi7IfF/fY0eV3LYMwCtwTwABsOKYR4Ag2HFmOUBMBiMuxPmATAYVgwzAAyGFcMMAINhxTADwGBYMcwAMBhWDDMADIYVwwwAg2HFMAPAYFgtwP8DuZ6DM3fZ7iEAAAAASUVORK5CYII=;" vertex="1" parent="1">
                    <mxGeometry x="270" y="20" width="196.92" height="270" as="geometry"/>
                </mxCell>
            </root>
        </mxGraphModel>
    </diagram>
</mxfile>